<?xml version="1.0" encoding="UTF-8"?>
<svg viewBox="0 0 925 314" xmlns="http://www.w3.org/2000/svg">
<defs>
<style>.cls-1{fill:#000;}</style>
<style>.cls-2{fill:#15006d;}</style>
</defs>
<g data-name="Capa 2">
<g data-name="Capa 1">
<path class="cls-2" d="M157.5.35a19.18,19.18,0,0,1,15.81,4,18.79,18.79,0,0,1,4.16,23.87L37.71,267.62c-1.82,3.09-3.42,6.44-6.26,8.77a19.28,19.28,0,0,1-23.2,1.41c-7.92-5.11-10.66-16.46-5.91-24.53Q73.43,131.44,144.59,9.62A18.87,18.87,0,0,1,157.5.35Z"/>
<path class="cls-2" d="M172.35,94.05a19,19,0,0,1,23.78,12.23,18.42,18.42,0,0,1,.46,9.6c-.64,3.44-2.68,6.37-4.39,9.36Q139.54,215,86.91,304.89A18.9,18.9,0,1,1,54.59,285.3l107.24-183A18.92,18.92,0,0,1,172.35,94.05Z"/>
<path class="cls-2" d="m208.13 155a19 19 0 0 1 23.65 12.4 18.58 18.58 0 0 1-1.73 14.92q-26 44.64-52 89.25a19.08 19.08 0 0 1-25.89 7 18.59 18.59 0 0 1-7-25.52q26-44.65 52.07-89.29a18.68 18.68 0 0 1 10.9-8.76z"/>
<path class="cls-2" d="M241.47,217.58a18.93,18.93,0,0,1,23.4,12.78,18.52,18.52,0,0,1-1.7,14.39q-7.87,13.58-15.86,27.09a18.54,18.54,0,0,1-11.94,8.7c-7.58,1.88-16.26-1.49-20.33-8.14a18.85,18.85,0,0,1-.24-19.82c5.18-8.8,10.32-17.62,15.5-26.43a18.84,18.84,0,0,1,11.17-8.57Z"/>
<path class="cls-1" d="m665.92 64.09a75.75 75.75 0 0 1 27.76 0q0.08 71.67 0 143.31c-13.1 6.68-27.76 9.87-42.45 10.82-16.65 1.1-34.53-2.19-47.74-12.82-12-9.48-18.23-24.63-18.87-39.54-1.4-17.28 4.66-35.39 17.64-47.33 16.65-15.53 42.19-19.12 63.74-12.71q-0.06-20.88-0.06-41.73zm-47.2 76.21c-6.87 9.87-7.77 23-3.83 34.17a29.1 29.1 0 0 0 19.76 18.37c10.27 2.67 21.31 1.59 31.29-1.8q-0.06-29.68 0-59.38c-7.1-4-15.54-4.82-23.58-4.26-9.3 0.66-18.36 5.26-23.64 12.9z"/>
<path class="cls-1" d="M459.38,119.88c12.13-9.87,27.54-15.11,43-16.95,13.22-1.17,27.23-.58,39.22,5.62a38.71,38.71,0,0,1,19.69,22.29c2.65,7.35,2.92,15.24,2.76,22.95v61.09a81.32,81.32,0,0,1-28,0q-.06-30,0-60c.12-6.24-.6-12.83-4.17-18.16-3.17-5.11-9.11-7.79-14.93-8.61a51.54,51.54,0,0,0-29.77,5v81.67a78.93,78.93,0,0,1-27.76,0c-.05-31.64,0-63.31,0-95Z"/>
<path class="cls-1" d="M764,103.1c15.55-2.13,32.28.56,45.19,9.79,13.33,9.32,21.33,24.93,22.62,40.87,1.72,16.09-2.72,33.13-13.64,45.42-21.38,24.48-64.06,25.84-87.14,3-21.94-22.23-21.62-62.07.89-83.81A58.28,58.28,0,0,1,764,103.1Zm2.15,24a27.64,27.64,0,0,0-16.66,10.69c-5,6.75-6.74,15.35-6.66,23.58s2.41,17,8.16,23.33c11.48,13.15,35.25,12.71,46-1.1,5.49-6.82,7.42-15.8,7.22-24.35-.18-9.12-3.08-18.64-9.83-25.12C787,127.06,775.91,125,766.13,127.11Z"/>
<path class="cls-1" d="m338.69 118.51c11.78-10.64 28.09-15.35 43.8-15.91 13.89-0.11 29 2.38 39.52 12.06 8.82 7.89 12.43 19.93 12.67 31.39 0.06 20.42 0 40.86 0 61.29-16.93 7.91-35.9 11.26-54.57 11-11.88-0.45-24.49-2.48-34.07-10-15.32-12-15.71-38.26-0.36-50.35 9.87-8 23.15-10.59 35.64-10.3a82.56 82.56 0 0 1 26.19 3.54c0-4.86 0.14-10-2.33-14.41-3-5.94-9.79-8.88-16.15-9.81a52.41 52.41 0 0 0-37.39 9.26 23.53 23.53 0 0 1-12.95-17.76zm28.66 53.12c-5.85 4.17-6.11 13.15-1.72 18.47 3.33 4 8.55 5.69 13.55 6.4a72.37 72.37 0 0 0 28.33-2.78c-0.06-7.37 0.1-14.73-0.1-22.08a67.65 67.65 0 0 0-22.72-3.92c-5.94-0.1-12.34 0.41-17.34 3.91z"/>
<path class="cls-1" d="M853.24,118.43c12.83-10.81,30-15.58,46.63-15.87,8.55.15,17.29.66,25.34,3.76-.36,8.36-2.22,17-7.47,23.75-12-2.8-25.4-3.56-36.78,1.87v83a82.34,82.34,0,0,1-27.75,0c0-32.15.15-64.32,0-96.49Z"/>
</g>
</g>
</svg>
